<mxfile host="app.diagrams.net" modified="2023-09-27T19:53:27.647Z" agent="Mozilla/5.0 (Windows NT 10.0; Win64; x64) AppleWebKit/537.36 (KHTML, like Gecko) Chrome/116.0.0.0 Safari/537.36" etag="vHqCDbjuyARGTamdi9L-" version="21.6.7" type="device">
  <diagram id="C5RBs43oDa-KdzZeNtuy" name="Page-1">
    <mxGraphModel dx="538" dy="522" grid="1" gridSize="10" guides="1" tooltips="1" connect="1" arrows="1" fold="1" page="1" pageScale="1" pageWidth="1169" pageHeight="827" math="0" shadow="0">
      <root>
        <mxCell id="WIyWlLk6GJQsqaUBKTNV-0" />
        <mxCell id="WIyWlLk6GJQsqaUBKTNV-1" parent="WIyWlLk6GJQsqaUBKTNV-0" />
        <mxCell id="kWXbW3syF6tDAqQCDF2H-0" value="User" style="swimlane;fontStyle=1;align=center;verticalAlign=top;childLayout=stackLayout;horizontal=1;startSize=26;horizontalStack=0;resizeParent=1;resizeParentMax=0;resizeLast=0;collapsible=1;marginBottom=0;whiteSpace=wrap;html=1;" vertex="1" parent="WIyWlLk6GJQsqaUBKTNV-1">
          <mxGeometry x="50" y="80" width="210" height="230" as="geometry" />
        </mxCell>
        <mxCell id="kWXbW3syF6tDAqQCDF2H-1" value="- userId: int(autoGenerated)&lt;br&gt;- firstName: String&lt;br&gt;- email: String&lt;br&gt;- PhoneNumber: String&lt;br&gt;" style="text;strokeColor=none;fillColor=none;align=left;verticalAlign=top;spacingLeft=4;spacingRight=4;overflow=hidden;rotatable=0;points=[[0,0.5],[1,0.5]];portConstraint=eastwest;whiteSpace=wrap;html=1;" vertex="1" parent="kWXbW3syF6tDAqQCDF2H-0">
          <mxGeometry y="26" width="210" height="104" as="geometry" />
        </mxCell>
        <mxCell id="kWXbW3syF6tDAqQCDF2H-2" value="" style="line;strokeWidth=1;fillColor=none;align=left;verticalAlign=middle;spacingTop=-1;spacingLeft=3;spacingRight=3;rotatable=0;labelPosition=right;points=[];portConstraint=eastwest;strokeColor=inherit;" vertex="1" parent="kWXbW3syF6tDAqQCDF2H-0">
          <mxGeometry y="130" width="210" height="8" as="geometry" />
        </mxCell>
        <mxCell id="kWXbW3syF6tDAqQCDF2H-3" value="+ defaultConstructor&lt;br&gt;+ allArgsConstructor&lt;br&gt;+ all Getters and setters&lt;br&gt;+ toString()&lt;br&gt;+ listFarms: List&amp;lt;Farms&amp;gt;" style="text;strokeColor=none;fillColor=none;align=left;verticalAlign=top;spacingLeft=4;spacingRight=4;overflow=hidden;rotatable=0;points=[[0,0.5],[1,0.5]];portConstraint=eastwest;whiteSpace=wrap;html=1;" vertex="1" parent="kWXbW3syF6tDAqQCDF2H-0">
          <mxGeometry y="138" width="210" height="92" as="geometry" />
        </mxCell>
        <mxCell id="kWXbW3syF6tDAqQCDF2H-4" value="Farm" style="swimlane;fontStyle=1;align=center;verticalAlign=top;childLayout=stackLayout;horizontal=1;startSize=26;horizontalStack=0;resizeParent=1;resizeParentMax=0;resizeLast=0;collapsible=1;marginBottom=0;whiteSpace=wrap;html=1;" vertex="1" parent="WIyWlLk6GJQsqaUBKTNV-1">
          <mxGeometry x="360" y="80" width="160" height="260" as="geometry" />
        </mxCell>
        <mxCell id="kWXbW3syF6tDAqQCDF2H-6" value="" style="line;strokeWidth=1;fillColor=none;align=left;verticalAlign=middle;spacingTop=-1;spacingLeft=3;spacingRight=3;rotatable=0;labelPosition=right;points=[];portConstraint=eastwest;strokeColor=inherit;" vertex="1" parent="kWXbW3syF6tDAqQCDF2H-4">
          <mxGeometry y="26" width="160" height="8" as="geometry" />
        </mxCell>
        <mxCell id="kWXbW3syF6tDAqQCDF2H-5" value="- farmId: int&amp;nbsp;&lt;br&gt;- Name: String&lt;br&gt;- LocationDescription: String" style="text;strokeColor=none;fillColor=none;align=left;verticalAlign=top;spacingLeft=4;spacingRight=4;overflow=hidden;rotatable=0;points=[[0,0.5],[1,0.5]];portConstraint=eastwest;whiteSpace=wrap;html=1;" vertex="1" parent="kWXbW3syF6tDAqQCDF2H-4">
          <mxGeometry y="34" width="160" height="118" as="geometry" />
        </mxCell>
        <mxCell id="kWXbW3syF6tDAqQCDF2H-7" value="+ noArgsContructor&lt;br&gt;+ AllArgsConstructor&lt;br&gt;+ AllGetters and Setters&lt;br&gt;+ listDevices(farmid): List&amp;lt;Device&amp;gt;" style="text;strokeColor=none;fillColor=none;align=left;verticalAlign=top;spacingLeft=4;spacingRight=4;overflow=hidden;rotatable=0;points=[[0,0.5],[1,0.5]];portConstraint=eastwest;whiteSpace=wrap;html=1;" vertex="1" parent="kWXbW3syF6tDAqQCDF2H-4">
          <mxGeometry y="152" width="160" height="108" as="geometry" />
        </mxCell>
        <mxCell id="kWXbW3syF6tDAqQCDF2H-8" value="Relation" style="endArrow=open;html=1;endSize=12;startArrow=diamondThin;startSize=14;startFill=0;edgeStyle=orthogonalEdgeStyle;rounded=0;" edge="1" parent="WIyWlLk6GJQsqaUBKTNV-1">
          <mxGeometry relative="1" as="geometry">
            <mxPoint x="260" y="220" as="sourcePoint" />
            <mxPoint x="360" y="220" as="targetPoint" />
          </mxGeometry>
        </mxCell>
        <mxCell id="kWXbW3syF6tDAqQCDF2H-9" value="0..n" style="edgeLabel;resizable=0;html=1;align=left;verticalAlign=top;" connectable="0" vertex="1" parent="kWXbW3syF6tDAqQCDF2H-8">
          <mxGeometry x="-1" relative="1" as="geometry" />
        </mxCell>
        <mxCell id="kWXbW3syF6tDAqQCDF2H-10" value="1" style="edgeLabel;resizable=0;html=1;align=right;verticalAlign=top;" connectable="0" vertex="1" parent="kWXbW3syF6tDAqQCDF2H-8">
          <mxGeometry x="1" relative="1" as="geometry" />
        </mxCell>
        <mxCell id="kWXbW3syF6tDAqQCDF2H-11" value="Device" style="swimlane;fontStyle=1;align=center;verticalAlign=top;childLayout=stackLayout;horizontal=1;startSize=26;horizontalStack=0;resizeParent=1;resizeParentMax=0;resizeLast=0;collapsible=1;marginBottom=0;whiteSpace=wrap;html=1;" vertex="1" parent="WIyWlLk6GJQsqaUBKTNV-1">
          <mxGeometry x="590" y="190" width="180" height="268" as="geometry" />
        </mxCell>
        <mxCell id="kWXbW3syF6tDAqQCDF2H-12" value="- deviceId: int&lt;br&gt;- deviceAuthCode: String Encrypted&lt;br&gt;- currentStatus: boolean&lt;br&gt;- stateChageList: List&amp;lt;&amp;lt;Time,status&amp;gt;&amp;gt;&lt;br&gt;" style="text;strokeColor=none;fillColor=none;align=left;verticalAlign=top;spacingLeft=4;spacingRight=4;overflow=hidden;rotatable=0;points=[[0,0.5],[1,0.5]];portConstraint=eastwest;whiteSpace=wrap;html=1;" vertex="1" parent="kWXbW3syF6tDAqQCDF2H-11">
          <mxGeometry y="26" width="180" height="104" as="geometry" />
        </mxCell>
        <mxCell id="kWXbW3syF6tDAqQCDF2H-13" value="" style="line;strokeWidth=1;fillColor=none;align=left;verticalAlign=middle;spacingTop=-1;spacingLeft=3;spacingRight=3;rotatable=0;labelPosition=right;points=[];portConstraint=eastwest;strokeColor=inherit;" vertex="1" parent="kWXbW3syF6tDAqQCDF2H-11">
          <mxGeometry y="130" width="180" height="8" as="geometry" />
        </mxCell>
        <mxCell id="kWXbW3syF6tDAqQCDF2H-14" value="+ noArgsContructor&lt;br style=&quot;border-color: var(--border-color);&quot;&gt;+ AllArgsConstructor&lt;br style=&quot;border-color: var(--border-color);&quot;&gt;+ AllGetters and Setters&lt;br&gt;+ getTimeLIne(stateChangeList)" style="text;strokeColor=none;fillColor=none;align=left;verticalAlign=top;spacingLeft=4;spacingRight=4;overflow=hidden;rotatable=0;points=[[0,0.5],[1,0.5]];portConstraint=eastwest;whiteSpace=wrap;html=1;" vertex="1" parent="kWXbW3syF6tDAqQCDF2H-11">
          <mxGeometry y="138" width="180" height="130" as="geometry" />
        </mxCell>
        <mxCell id="kWXbW3syF6tDAqQCDF2H-16" value="Relation" style="endArrow=open;html=1;endSize=12;startArrow=diamondThin;startSize=14;startFill=0;edgeStyle=orthogonalEdgeStyle;rounded=0;exitX=1.019;exitY=0.178;exitDx=0;exitDy=0;exitPerimeter=0;entryX=-0.017;entryY=0.24;entryDx=0;entryDy=0;entryPerimeter=0;" edge="1" parent="WIyWlLk6GJQsqaUBKTNV-1" source="kWXbW3syF6tDAqQCDF2H-5" target="kWXbW3syF6tDAqQCDF2H-12">
          <mxGeometry relative="1" as="geometry">
            <mxPoint x="540" y="170" as="sourcePoint" />
            <mxPoint x="700" y="190" as="targetPoint" />
            <Array as="points">
              <mxPoint x="523" y="130" />
              <mxPoint x="560" y="130" />
              <mxPoint x="560" y="241" />
            </Array>
          </mxGeometry>
        </mxCell>
        <mxCell id="kWXbW3syF6tDAqQCDF2H-17" value="0..n" style="edgeLabel;resizable=0;html=1;align=left;verticalAlign=top;" connectable="0" vertex="1" parent="kWXbW3syF6tDAqQCDF2H-16">
          <mxGeometry x="-1" relative="1" as="geometry" />
        </mxCell>
        <mxCell id="kWXbW3syF6tDAqQCDF2H-18" value="1" style="edgeLabel;resizable=0;html=1;align=right;verticalAlign=top;" connectable="0" vertex="1" parent="kWXbW3syF6tDAqQCDF2H-16">
          <mxGeometry x="1" relative="1" as="geometry" />
        </mxCell>
      </root>
    </mxGraphModel>
  </diagram>
</mxfile>
